{
  "accessors": [
    {
      "bufferView": 2,
      "componentType": 5126,
      "count": 258,
      "max": [
        0.54545998573303223,
        0.10343699902296066,
        0.19386400282382965
      ],
      "min": [
        -0.54222202301025391,
        -0.018349999561905861,
        0.01396500039845705
      ],
      "type": "VEC3"
    },
    {
      "bufferView": 2,
      "byteOffset": 3096,
      "componentType": 5126,
      "count": 258,
      "max": [
        0.99980700016021729,
        0.98797148466110229,
        0.85878729820251465
      ],
      "min": [
        -0.99986809492111206,
        -0.96932399272918701,
        -0.67264634370803833
      ],
      "type": "VEC3"
    },
    {
      "bufferView": 1,
      "componentType": 5126,
      "count": 258,
      "max": [
        0.81673800945281982,
        0.94302099943161011
      ],
      "min": [
        0.0033450000919401646,
        0.14912299811840057
      ],
      "type": "VEC2"
    },
    {
      "bufferView": 0,
      "componentType": 5125,
      "count": 900,
      "max": [
        257
      ],
      "min": [
        0
      ],
      "type": "SCALAR"
    },
    {
      "bufferView": 2,
      "byteOffset": 6192,
      "componentType": 5126,
      "count": 580,
      "max": [
        0.088712997734546661,
        0.14859400689601898,
        -0.55445998907089233
      ],
      "min": [
        -0.088336996734142303,
        -0.069875001907348633,
        -0.77231699228286743
      ],
      "type": "VEC3"
    },
    {
      "bufferView": 2,
      "byteOffset": 13152,
      "componentType": 5126,
      "count": 580,
      "max": [
        0.99904513359069824,
        0.99992746114730835,
        0.99975013732910156
      ],
      "min": [
        -0.99891465902328491,
        -0.99999988079071045,
        -0.99513179063796997
      ],
      "type": "VEC3"
    },
    {
      "bufferView": 1,
      "byteOffset": 2064,
      "componentType": 5126,
      "count": 580,
      "max": [
        0.99721801280975342,
        0.99749797582626343
      ],
      "min": [
        0.0019030000548809767,
        0.0039630001410841942
      ],
      "type": "VEC2"
    },
    {
      "bufferView": 0,
      "byteOffset": 3600,
      "componentType": 5125,
      "count": 2268,
      "max": [
        579
      ],
      "min": [
        0
      ],
      "type": "SCALAR"
    },
    {
      "bufferView": 2,
      "byteOffset": 20112,
      "componentType": 5126,
      "count": 408,
      "max": [
        0.49415901303291321,
        0.19531600177288055,
        0.033886998891830444
      ],
      "min": [
        -0.49082699418067932,
        -0.11433099955320358,
        -0.61768800020217896
      ],
      "type": "VEC3"
    },
    {
      "bufferView": 2,
      "byteOffset": 25008,
      "componentType": 5126,
      "count": 408,
      "max": [
        0.99885910749435425,
        0.999775230884552,
        0.74588108062744141
      ],
      "min": [
        -0.99835437536239624,
        -0.99935662746429443,
        -0.91396701335906982
      ],
      "type": "VEC3"
    },
    {
      "bufferView": 1,
      "byteOffset": 6704,
      "componentType": 5126,
      "count": 408,
      "max": [
        0.98934799432754517,
        0.94943201541900635
      ],
      "min": [
        0.017994999885559082,
        0.0093820001929998398
      ],
      "type": "VEC2"
    },
    {
      "bufferView": 0,
      "byteOffset": 12672,
      "componentType": 5125,
      "count": 1938,
      "max": [
        407
      ],
      "min": [
        0
      ],
      "type": "SCALAR"
    },
    {
      "bufferView": 2,
      "byteOffset": 29904,
      "componentType": 5126,
      "count": 217,
      "max": [
        0.22196899354457855,
        0.24904599785804749,
        1.040863037109375
      ],
      "min": [
        -0.2319130003452301,
        -0.041271999478340149,
        0.85777699947357178
      ],
      "type": "VEC3"
    },
    {
      "bufferView": 2,
      "byteOffset": 32508,
      "componentType": 5126,
      "count": 217,
      "max": [
        0.99516314268112183,
        0.98966437578201294,
        0.99633145332336426
      ],
      "min": [
        -0.99412566423416138,
        -0.99825125932693481,
        -0.94263410568237305
      ],
      "type": "VEC3"
    },
    {
      "bufferView": 1,
      "byteOffset": 9968,
      "componentType": 5126,
      "count": 217,
      "max": [
        0.94255602359771729,
        1.9970240592956543
      ],
      "min": [
        0.0018570000538602471,
        0.99903100728988647
      ],
      "type": "VEC2"
    },
    {
      "bufferView": 0,
      "byteOffset": 20424,
      "componentType": 5125,
      "count": 828,
      "max": [
        216
      ],
      "min": [
        0
      ],
      "type": "SCALAR"
    },
    {
      "bufferView": 2,
      "byteOffset": 35112,
      "componentType": 5126,
      "count": 297,
      "max": [
        0.27258399128913879,
        0.17373600602149963,
        1.0156049728393555
      ],
      "min": [
        -0.25885900855064392,
        -0.12628699839115143,
        -0.084881000220775604
      ],
      "type": "VEC3"
    },
    {
      "bufferView": 2,
      "byteOffset": 38676,
      "componentType": 5126,
      "count": 297,
      "max": [
        0.99875849485397339,
        0.99999135732650757,
        0.98282724618911743
      ],
      "min": [
        -0.99857801198959351,
        -0.99999445676803589,
        -0.46190100908279419
      ],
      "type": "VEC3"
    },
    {
      "bufferView": 1,
      "byteOffset": 11704,
      "componentType": 5126,
      "count": 297,
      "max": [
        0.99598199129104614,
        0.99797201156616211
      ],
      "min": [
        0.0040150000713765621,
        0.0022819999139755964
      ],
      "type": "VEC2"
    },
    {
      "bufferView": 0,
      "byteOffset": 23736,
      "componentType": 5125,
      "count": 1284,
      "max": [
        296
      ],
      "min": [
        0
      ],
      "type": "SCALAR"
    }
  ],
  "asset": {
    "extras": {
      "author": "sabeshkumar (https://sketchfab.com/sabeshkumar)",
      "license": "CC-BY-4.0 (http://creativecommons.org/licenses/by/4.0/)",
      "source": "https://sketchfab.com/3d-models/cj-from-gta-sanandreas-ec17f6ada4b5441b9420233f785d81d8",
      "title": "CJ from Gta Sanandreas"
    },
    "generator": "Sketchfab-8.94.0",
    "version": "2.0"
  },
  "bufferViews": [
    {
      "buffer": 0,
      "byteLength": 28872,
      "byteOffset": 0,
      "name": "floatBufferViews",
      "target": 34963
    },
    {
      "buffer": 0,
      "byteLength": 14080,
      "byteOffset": 28872,
      "byteStride": 8,
      "name": "floatBufferViews",
      "target": 34962
    },
    {
      "buffer": 0,
      "byteLength": 42240,
      "byteOffset": 42952,
      "byteStride": 12,
      "name": "floatBufferViews",
      "target": 34962
    }
  ],
  "buffers": [
    {
      "byteLength": 85192,
      "uri": "scene.bin"
    }
  ],
  "images": [
    {
      "uri": "textures/lambert2_baseColor.png"
    },
    {
      "uri": "textures/lambert5_baseColor.png"
    },
    {
      "uri": "textures/lambert4_baseColor.png"
    },
    {
      "uri": "textures/lambert3_baseColor.png"
    }
  ],
  "materials": [
    {
      "doubleSided": true,
      "emissiveFactor": [
        0,
        0,
        0
      ],
      "name": "lambert2",
      "pbrMetallicRoughness": {
        "baseColorFactor": [
          1,
          1,
          1,
          1
        ],
        "baseColorTexture": {
          "index": 0,
          "texCoord": 0
        },
        "metallicFactor": 0,
        "roughnessFactor": 0.59999999999999998
      }
    },
    {
      "doubleSided": true,
      "emissiveFactor": [
        0,
        0,
        0
      ],
      "name": "lambert5",
      "pbrMetallicRoughness": {
        "baseColorFactor": [
          1,
          1,
          1,
          1
        ],
        "baseColorTexture": {
          "index": 1,
          "texCoord": 0
        },
        "metallicFactor": 0,
        "roughnessFactor": 0.59999999999999998
      }
    },
    {
      "doubleSided": true,
      "emissiveFactor": [
        0,
        0,
        0
      ],
      "name": "lambert4",
      "pbrMetallicRoughness": {
        "baseColorFactor": [
          1,
          1,
          1,
          1
        ],
        "baseColorTexture": {
          "index": 2,
          "texCoord": 0
        },
        "metallicFactor": 0,
        "roughnessFactor": 0.59999999999999998
      }
    },
    {
      "doubleSided": true,
      "emissiveFactor": [
        0,
        0,
        0
      ],
      "name": "lambert3",
      "pbrMetallicRoughness": {
        "baseColorFactor": [
          1,
          1,
          1,
          1
        ],
        "baseColorTexture": {
          "index": 3,
          "texCoord": 0
        },
        "metallicFactor": 0,
        "roughnessFactor": 0.59999999999999998
      }
    }
  ],
  "meshes": [
    {
      "name": "CJ_GTASA:Hands_lambert2_0",
      "primitives": [
        {
          "attributes": {
            "NORMAL": 1,
            "POSITION": 0,
            "TEXCOORD_0": 2
          },
          "indices": 3,
          "material": 0,
          "mode": 4
        }
      ]
    },
    {
      "name": "CJ_GTASA:Head_lambert5_0",
      "primitives": [
        {
          "attributes": {
            "NORMAL": 5,
            "POSITION": 4,
            "TEXCOORD_0": 6
          },
          "indices": 7,
          "material": 1,
          "mode": 4
        }
      ]
    },
    {
      "name": "CJ_GTASA:Torso_lambert2_0",
      "primitives": [
        {
          "attributes": {
            "NORMAL": 9,
            "POSITION": 8,
            "TEXCOORD_0": 10
          },
          "indices": 11,
          "material": 0,
          "mode": 4
        }
      ]
    },
    {
      "name": "CJ_GTASA:Feet_lambert4_0",
      "primitives": [
        {
          "attributes": {
            "NORMAL": 13,
            "POSITION": 12,
            "TEXCOORD_0": 14
          },
          "indices": 15,
          "material": 2,
          "mode": 4
        }
      ]
    },
    {
      "name": "CJ_GTASA:Pants_lambert3_0",
      "primitives": [
        {
          "attributes": {
            "NORMAL": 17,
            "POSITION": 16,
            "TEXCOORD_0": 18
          },
          "indices": 19,
          "material": 3,
          "mode": 4
        }
      ]
    }
  ],
  "nodes": [
    {
      "children": [
        1
      ],
      "name": "RootNode (gltf orientation matrix)",
      "rotation": [
        -0.70710678118654746,
        -0,
        -0,
        0.70710678118654757
      ]
    },
    {
      "children": [
        2
      ],
      "matrix": [
        0.83737045526504517,
        0,
        0,
        0,
        0,
        0.83737045526504517,
        0,
        0,
        0,
        0,
        0.83737045526504517,
        0,
        0,
        0,
        0,
        1
      ],
      "name": "RootNode (model correction matrix)"
    },
    {
      "children": [
        3
      ],
      "matrix": [
        1,
        0,
        0,
        0,
        0,
        0,
        1,
        0,
        0,
        -1,
        0,
        0,
        0,
        0,
        0,
        1
      ],
      "name": "a906cd8f22b341eeab50eed94da7c0db.fbx"
    },
    {
      "children": [
        4,
        6,
        8,
        10,
        12
      ],
      "name": "RootNode"
    },
    {
      "children": [
        5
      ],
      "matrix": [
        1,
        0,
        0,
        0,
        0,
        2.2204460492503131e-16,
        1,
        0,
        0,
        -1,
        2.2204460492503131e-16,
        0,
        0,
        1.066191554069519,
        0,
        1
      ],
      "name": "CJ_GTASA:Hands"
    },
    {
      "mesh": 0,
      "name": "CJ_GTASA:Hands_lambert2_0"
    },
    {
      "children": [
        7
      ],
      "matrix": [
        1,
        0,
        0,
        0,
        0,
        2.2204460492503131e-16,
        1,
        0,
        0,
        -1,
        2.2204460492503131e-16,
        0,
        0,
        1.066191554069519,
        0,
        1
      ],
      "name": "CJ_GTASA:Head"
    },
    {
      "mesh": 1,
      "name": "CJ_GTASA:Head_lambert5_0"
    },
    {
      "children": [
        9
      ],
      "matrix": [
        1,
        0,
        0,
        0,
        0,
        2.2204460492503131e-16,
        1,
        0,
        0,
        -1,
        2.2204460492503131e-16,
        0,
        0,
        1.066191554069519,
        0,
        1
      ],
      "name": "CJ_GTASA:Torso"
    },
    {
      "mesh": 2,
      "name": "CJ_GTASA:Torso_lambert2_0"
    },
    {
      "children": [
        11
      ],
      "matrix": [
        1,
        0,
        0,
        0,
        0,
        2.2204460492503131e-16,
        1,
        0,
        0,
        -1,
        2.2204460492503131e-16,
        0,
        0,
        1.066191554069519,
        0,
        1
      ],
      "name": "CJ_GTASA:Feet"
    },
    {
      "mesh": 3,
      "name": "CJ_GTASA:Feet_lambert4_0"
    },
    {
      "children": [
        13
      ],
      "matrix": [
        1,
        0,
        0,
        0,
        0,
        2.2204460492503131e-16,
        1,
        0,
        0,
        -1,
        2.2204460492503131e-16,
        0,
        0,
        1.066191554069519,
        0,
        1
      ],
      "name": "CJ_GTASA:Pants"
    },
    {
      "mesh": 4,
      "name": "CJ_GTASA:Pants_lambert3_0"
    }
  ],
  "samplers": [
    {
      "magFilter": 9729,
      "minFilter": 9987,
      "wrapS": 10497,
      "wrapT": 10497
    }
  ],
  "scene": 0,
  "scenes": [
    {
      "name": "OSG_Scene",
      "nodes": [
        0
      ]
    }
  ],
  "textures": [
    {
      "sampler": 0,
      "source": 0
    },
    {
      "sampler": 0,
      "source": 1
    },
    {
      "sampler": 0,
      "source": 2
    },
    {
      "sampler": 0,
      "source": 3
    }
  ]
}

